<?xml version="1.0" encoding="UTF-8"?>
<svg width="858px" height="190px" viewBox="0 0 858 190" version="1.1" xmlns="http://www.w3.org/2000/svg" xmlns:xlink="http://www.w3.org/1999/xlink">
    <!-- Generator: Sketch 55.2 (78181) - https://sketchapp.com -->
    <title>Group 5</title>
    <desc>Created with Sketch.</desc>
    <defs>
        <linearGradient x1="61.2732333%" y1="66.1306177%" x2="90.985336%" y2="-3.42431125%" id="linearGradient-1">
            <stop stop-color="#007ADF" offset="0%"></stop>
            <stop stop-color="#00B4CD" offset="81.5701873%"></stop>
            <stop stop-color="#00ECBC" offset="100%"></stop>
        </linearGradient>
    </defs>
    <g id="Logo" stroke="none" stroke-width="1" fill="none" fill-rule="evenodd">
        <g id="Horizontal-Logo-Copy" transform="translate(-69.000000, -23.000000)">
            <g id="Group-5" transform="translate(69.000000, 23.000000)">
                <g id="Group-4" transform="translate(240.000000, 19.000000)" fill-rule="nonzero">
                    <g id="Group" transform="translate(0.722057, 0.000000)">
                        <path d="M-9.13047415e-13,115.451264 L-9.13047415e-13,33.588015 L7.38147338,33.588015 C10.8020613,33.588015 13.6019248,36.3092931 13.6992792,39.7284953 L13.8544874,45.1795908 C17.7248838,37.6313698 24.0993314,33.588015 33.1233721,33.588015 C37.506184,33.588015 41.2820027,34.7707792 44.3253281,36.6310152 C44.6589824,36.8349617 45.3806298,37.220129 46.4902702,37.7865169 L42.1947898,50.2573357 C39.1539877,48.5346249 35.7586303,47.6732806 32.0086433,47.6732806 C27.2312099,47.6732806 23.0112071,49.5195478 19.3485082,53.2121375 C15.6858094,56.9047273 13.5244422,62.9182832 13.5244422,71.2529858 L13.5244422,115.451264 C13.5244422,116.614811 12.5812008,117.558052 11.4176535,117.558052 L2.10678874,117.558052 C0.943241447,117.558052 -9.13349011e-13,116.614811 -9.13047415e-13,115.451264 Z" id="Path-Copy" fill="#4A4A4A"></path>
                        <path d="M91.2860702,117.558052 C79.9127191,117.558052 70.8633855,113.335196 64.1377981,105.617761 C57.4122106,97.900327 54.0494674,87.8781716 54.0494674,75.5509945 C54.0494674,62.6022792 57.43955,52.4506386 64.219817,45.0957683 C71.0000841,37.7408979 80.0220782,33.588015 91.2860702,33.588015 C101.347112,33.588015 109.630943,37.2488541 116.137812,43.6196221 C122.644681,49.99039 125.898067,59.3910164 125.898067,71.8217832 C125.898067,73.9835691 125.806946,76.202873 125.624703,78.4797322 C125.61448,78.6074597 125.602352,78.7513209 125.588321,78.9113159 C125.492898,79.9993492 124.581797,80.834044 123.489588,80.834044 C123.323248,80.834044 123.174054,80.834044 123.042006,80.834044 C99.6847283,80.834044 82.0706837,80.834044 70.199872,80.834044 C70.12166,80.834044 70.0345743,80.834044 69.9386147,80.834044 C69.2886216,80.8340268 68.7616981,81.3609504 68.7616981,82.0109435 C68.7616981,82.0534099 68.7639965,82.0958453 68.7685834,82.1380633 C69.4909756,88.7870795 71.829591,94.1792509 75.7844889,98.3147224 C79.994816,102.717286 85.2713156,104.918534 91.614146,104.918534 C98.2929183,104.918534 104.075376,102.749027 108.961675,98.4099504 C109.355936,98.0598436 109.956847,98.085626 110.319646,98.4682388 C110.320546,98.4691873 110.321443,98.4701329 110.322337,98.4710757 C111.989239,100.228788 114.434694,102.807467 117.658701,106.207114 C117.696018,106.246464 117.738165,106.290907 117.785141,106.340442 C118.094954,106.667122 118.081272,107.183102 117.754587,107.492909 C117.750314,107.496961 117.745997,107.500967 117.741637,107.504926 C110.627845,113.964243 101.809406,117.558052 91.2860702,117.558052 Z M69.5711805,69.9869614 C79.3099368,69.9869614 93.7978701,69.9869614 113.03498,69.9869614 C113.057444,69.9869614 113.080699,69.9869614 113.104746,69.9869614 C113.85578,69.9869336 114.464614,69.3780999 114.464614,68.6270655 C114.464614,68.6067981 114.464161,68.5865332 114.463255,68.566286 C114.123061,60.9624713 111.917124,55.3960887 107.845387,51.8669866 C103.524163,48.1216456 98.4630791,46.2490031 92.6619834,46.2490031 C85.6769907,46.2490031 79.935176,48.2271465 75.4363672,52.1834927 C71.2660426,55.8509629 68.825198,61.2182001 68.113774,68.2853461 C68.1109415,68.313484 68.1080632,68.3427494 68.1051393,68.3731421 C68.0272779,69.1827997 68.6204877,69.9022994 69.4301423,69.9801927 C69.4770198,69.9847025 69.5240866,69.9869614 69.5711805,69.9869614 Z" id="Combined-Shape" fill="#4A4A4A"></path>
                        <path d="M194.003294,115.451264 L194.003294,67.9296716 C194.003294,60.6499947 192.874893,55.2958199 189.74302,51.8669866 C186.611147,48.4381532 182.338062,46.7237623 176.923638,46.7237623 C164.396146,46.7237623 157.656355,53.6868271 157.656355,67.6131655 L157.656355,115.451264 C157.656355,116.614811 156.713114,117.558052 155.549566,117.558052 L146.238702,117.558052 C145.075154,117.558052 144.131913,116.614811 144.131913,115.451264 L144.131913,33.588015 L151.335989,33.588015 C154.826631,33.588015 157.656355,36.4177393 157.656355,39.9083812 L157.656355,44.9049106 C162.646119,38.1527465 170.129055,33.588015 179.153095,33.588015 C188.707962,33.588015 195.953627,36.9384197 200.890308,42.6883094 C205.82699,48.4381991 207.527736,57.6431598 207.527736,70.3034675 L207.527736,115.451264 C207.527736,116.614811 206.584494,117.558052 205.420947,117.558052 L196.110082,117.558052 C194.946535,117.558052 194.003294,116.614811 194.003294,115.451264 Z" id="Path" fill="#4A4A4A"></path>
                        <path d="M234.86988,115.451264 L234.86988,46.1835206 L223.452226,46.1835206 C222.288679,46.1835206 221.345438,45.2402792 221.345438,44.0767319 L221.345438,35.6948037 C221.345438,34.5312564 222.288679,33.588015 223.452226,33.588015 L234.86988,33.588015 L234.86988,1.69156157 C234.86988,1.10978793 235.341501,0.638167202 235.923274,0.638167202 C236.201444,0.638167202 236.468322,0.748194447 236.665667,0.944237875 L247.150316,11.3597073 C247.946555,12.1506931 248.394322,13.2266581 248.394322,14.349002 L248.394322,33.588015 L257.311567,33.588015 C260.78972,33.588015 263.60932,36.407615 263.60932,39.8857678 L263.60932,44.4735206 C263.60932,45.4179275 262.843727,46.1835206 261.89932,46.1835206 L248.394322,46.1835206 L248.394322,115.451264 C248.394322,116.614811 247.451081,117.558052 246.287533,117.558052 L236.976669,117.558052 C235.813121,117.558052 234.86988,116.614811 234.86988,115.451264 Z" id="Path" fill="#4A4A4A"></path>
                        <path d="M327.464366,95.4807608 C327.621849,91.390672 325.865729,87.4526062 322.691876,84.778547 C319.509693,82.084537 314.71444,79.9765368 308.306117,78.4545464 C301.897794,76.9325559 296.924358,75.1862775 293.385808,73.2157111 C290.154108,71.5284301 287.436871,69.0368204 285.50963,65.9935369 C283.716171,62.8394837 282.828282,59.2711589 282.939707,55.6653066 C282.788466,49.6140708 285.406935,43.811752 290.082743,39.8369124 C294.844766,35.6709808 300.941203,33.588015 308.372053,33.588015 C316.427199,33.588015 323.194364,35.744055 327.764216,40.2859992 C332.334069,44.8279433 334.753878,50.3685355 334.867696,57.5577563 C334.867696,58.2933834 334.542655,58.5987018 333.988645,58.5987018 L331.429143,58.5987018 C329.283169,58.6069616 327.390205,56.3890493 326.78617,54.3785886 C325.777511,51.3039532 325.178595,48.9757523 321.757002,45.939435 C318.218976,42.7963382 313.757588,41.2247899 308.372838,41.2247899 C303.121529,41.2247899 298.904784,42.5344987 295.722601,45.1539163 C292.597489,47.6523835 290.834662,51.423702 290.949326,55.3656599 C290.949326,59.4069303 292.273274,62.5377653 294.921168,64.758165 C297.569062,66.9785646 302.397807,69.011717 309.407401,70.8576222 C316.416471,72.7035274 321.66778,74.6743492 325.161326,76.7700876 C328.377537,78.5932661 331.056576,81.1969809 332.9386,84.3286938 C334.716072,87.6225686 335.590065,91.3095301 335.475555,95.0309077 C335.475555,101.866326 333.016048,107.329704 328.097035,111.421044 C323.178021,115.512383 316.758971,117.558052 308.839882,117.558052 C300.428893,117.558052 293.608733,115.275322 288.379404,110.709862 C285.747213,108.199935 283.223297,104.732822 281.915532,100.981103 C281.028468,98.4362933 280.497238,95.852293 280.484991,93.2626882 C280.487776,92.9438954 280.627822,92.3670412 281.265687,92.3670412 L287.825218,92.3670412 C288.251315,92.3670375 288.612377,92.6807735 288.671852,93.1026988 C289.079022,95.99123 289.549319,98.1059249 290.082743,99.4467834 C290.949326,101.625102 292.771594,104.295656 294.453338,105.621233 C298.080849,108.540042 302.876364,109.999446 308.839882,109.999446 C314.403077,109.999446 318.897956,108.627407 322.32452,105.883328 C325.621913,103.400956 327.526855,99.5455322 327.464366,95.4807608 Z" id="Path_5" fill="#5F5F5F"></path>
                        <path d="M432.395739,115.451264 L432.395739,33.588015 L434.642608,33.588015 C438.133249,33.588015 440.962974,36.4177393 440.962974,39.9083812 L440.962974,48.2706517 C446.783788,37.4005387 452.978603,33.588015 463.43176,33.588015 C466.865882,33.588015 469.759556,34.6488542 472.112823,35.7534424 C472.649688,36.0054386 473.346161,36.4267331 474.202242,37.0173257 C474.535794,37.2474869 474.70777,37.6485739 474.6445,38.0488585 L473.59301,44.7011379 C473.538484,45.0458992 473.214818,45.2812103 472.870052,45.226715 C472.801409,45.2158649 472.735025,45.1937677 472.673574,45.1613128 C471.825565,44.7134479 471.149222,44.3896899 470.644545,44.190039 C468.217493,43.2298949 465.543835,42.749828 462.62353,42.749828 C457.127541,42.749828 452.143507,45.0835632 447.67128,49.7511037 C443.199054,54.4186442 440.962974,61.6296238 440.962974,71.3842589 L440.962974,115.451264 C440.962974,116.614811 440.019732,117.558052 438.856185,117.558052 L434.502528,117.558052 C433.33898,117.558052 432.395739,116.614811 432.395739,115.451264 Z" id="Path" fill="#5F5F5F"></path>
                        <path d="M511.90152,117.558052 C501.724908,117.558052 493.651237,113.342347 487.680266,105.573117 C481.709295,97.8038882 478.723854,87.8076299 478.723854,75.5840425 C478.723854,62.6353272 481.761215,52.4836866 487.83603,45.1288163 C493.910844,37.7739459 501.932594,33.588015 511.90152,33.588015 C520.93586,33.588015 528.23072,37.4372844 533.786319,44.1188215 C539.341919,50.8003586 542.119677,60.7707199 542.119677,74.0302045 C542.119677,76.6046991 540.032636,78.6917393 537.458142,78.6917187 C537.454289,78.6917187 537.450444,78.6917187 537.446607,78.6917187 C526.846171,78.6917187 511.189119,78.6917187 490.47545,78.6917187 C489.970409,78.6917187 489.266898,78.6917187 488.364917,78.6917187 C487.899467,78.6916617 487.522145,79.0689838 487.522145,79.5344342 C487.522145,79.5591447 487.523232,79.5838433 487.525402,79.6084584 C487.612277,80.5937203 487.687425,81.3542828 487.750845,81.8901459 C488.743594,90.2783103 491.134387,96.8000237 494.923278,101.455447 C499.18084,106.686728 504.99596,109.302329 512.368811,109.302329 C517.945871,109.302329 523.157234,107.806919 528.00301,104.816061 C528.536895,104.486542 529.290973,103.974112 530.265245,103.27877 C530.537506,103.084531 530.913971,103.135976 531.124091,103.396177 C531.770242,104.19634 532.268577,104.813454 532.619096,105.247519 C532.875943,105.565586 533.188866,105.953096 533.557866,106.410047 C533.820964,106.735855 534.257255,107.276136 534.866738,108.030892 C535.085993,108.302474 535.043622,108.700381 534.772067,108.919668 C534.770733,108.920745 534.769396,108.921816 534.768054,108.922882 C533.844089,109.65667 533.127641,110.203838 532.618709,110.564387 C526.349045,115.006084 519.443368,117.558052 511.90152,117.558052 Z M488.515224,71.698923 C489.604311,71.698923 490.459077,71.698923 491.079521,71.698923 C499.975391,71.698923 513.005996,71.698923 530.171335,71.698923 C530.852543,71.698923 531.816069,71.698923 533.061914,71.698923 C533.643702,71.6989494 534.115335,71.2273168 534.115335,70.6455286 C534.115335,70.6354969 534.115191,70.6254656 534.114905,70.6154379 C534.072487,69.13107 534.023868,68.0028887 533.969048,67.2308941 C533.35981,58.6513289 531.187472,52.4052288 527.451992,48.4924474 C523.096089,43.9297955 518.031772,41.6485037 512.258889,41.6485037 C505.121506,41.6485037 499.32247,44.1657912 494.861606,49.2004416 C491.098778,53.4472689 488.73628,59.4478421 487.774066,67.2022964 C487.678298,67.9740899 487.575204,69.095537 487.464784,70.5666376 C487.421192,71.146801 487.856208,71.652421 488.436375,71.695968 C488.462612,71.6979373 488.488913,71.698923 488.515224,71.698923 Z" id="Combined-Shape" fill="#5F5F5F"></path>
                        <path d="M586.541261,117.558052 C576.364649,117.558052 568.290978,113.342347 562.320007,105.573117 C556.349035,97.8038882 553.363594,87.8076299 553.363594,75.5840425 C553.363594,62.6353272 556.400956,52.4836866 562.47577,45.1288163 C568.550585,37.7739459 576.572335,33.588015 586.541261,33.588015 C595.5756,33.588015 602.87046,37.4372844 608.42606,44.1188215 C613.981659,50.8003586 616.759417,60.7707199 616.759417,74.0302045 C616.759417,74.7618344 616.739253,75.6409717 616.698925,76.6676162 C616.654525,77.7981236 615.725139,78.6917187 614.59376,78.6917187 C613.508398,78.6917187 612.635297,78.6917187 611.974456,78.6917187 C601.50512,78.6917187 586.092403,78.6917187 565.736307,78.6917187 C565.094459,78.6917187 564.18396,78.6917187 563.004811,78.6917187 C562.539379,78.691695 562.162072,79.0690022 562.162072,79.5344342 C562.162072,79.5591983 562.163164,79.5839505 562.165344,79.6086185 C562.254739,80.620214 562.332136,81.4002169 562.397533,81.9486272 C563.39446,90.3086283 565.782937,96.8108483 569.563018,101.455447 C573.820581,106.686728 579.6357,109.302329 587.008552,109.302329 C592.648674,109.302329 597.914782,107.772909 602.80699,104.714031 C603.303209,104.403767 604.002446,103.925749 604.904702,103.279977 C605.176949,103.085034 605.553972,103.136297 605.764341,103.396808 C606.308812,104.071055 606.730609,104.593388 607.029731,104.963806 C607.341435,105.349805 607.729148,105.82993 608.19287,106.404181 C608.46193,106.737372 608.900028,107.279892 609.507164,108.031739 C609.726392,108.303326 609.684023,108.701218 609.412477,108.920498 C609.411415,108.921356 609.410349,108.922211 609.409281,108.923062 C608.587016,109.5783 607.948096,110.069718 607.492522,110.397316 C601.160782,114.950394 594.177083,117.558052 586.541261,117.558052 Z M563.154715,71.698923 C564.489566,71.698923 565.529998,71.698923 566.276012,71.698923 C575.064427,71.698923 587.941148,71.698923 604.906175,71.698923 C605.566502,71.698923 606.49839,71.698923 607.701838,71.698923 C608.2836,71.6989008 608.755211,71.22729 608.755211,70.6455286 C608.755211,70.6355403 608.755069,70.6255524 608.754784,70.6155681 C608.713024,69.1479412 608.665222,68.0319098 608.611376,67.2674739 C608.00572,58.6690806 605.83252,52.4107875 602.091733,48.4924474 C597.73583,43.9297955 592.671513,41.6485037 586.89863,41.6485037 C579.761247,41.6485037 573.96221,44.1657912 569.501346,49.2004416 C565.729531,53.4574127 563.364743,59.4765176 562.406936,67.2578924 C562.31336,68.0181191 562.212468,69.1211166 562.104259,70.5668849 C562.060814,71.1470463 562.495928,71.6525623 563.076091,71.6959848 C563.102253,71.6979429 563.12848,71.698923 563.154715,71.698923 Z" id="Combined-Shape" fill="#5F5F5F"></path>
                        <g id="Group-3" transform="translate(352.608430, 33.588015)" fill="#5F5F5F">
                            <path d="M8.12783857,14.7300879 C13.7091502,5.71512138 22.0084779,0 31.2752727,0 C48.0812949,0 61.7052677,18.7973332 61.7052677,41.9850187 C61.7052677,65.1727043 48.0812949,83.9700375 31.2752727,83.9700375 C22.0084779,83.9700375 13.7091502,78.2549161 8.12783857,69.2399495 L8.12783857,109.376012 C8.12783857,109.817683 7.95708408,110.241542 7.65278156,110.555791 L1.05714601,117.36996 C0.881188593,117.551927 0.614852095,117.607396 0.383030977,117.510356 C0.151209859,117.413315 -0.00012204319,117.18301 -2.93098879e-13,116.927437 L-2.93098879e-13,1.42108547e-14 L1.80747236,1.42108547e-14 C5.29811423,1.26814558e-14 8.12783857,2.82972434 8.12783857,6.32036621 L8.12783857,14.7300879 Z M30.9830779,75.5730337 C44.0544285,75.5730337 54.6508518,60.5351672 54.6508518,41.9850187 C54.6508518,23.4348703 44.0544285,8.39700375 30.9830779,8.39700375 C17.9117273,8.39700375 7.31530402,23.4348703 7.31530402,41.9850187 C7.31530402,60.5351672 17.9117273,75.5730337 30.9830779,75.5730337 Z" id="Combined-Shape"></path>
                        </g>
                    </g>
                </g>
                <g id="Group-Copy-4">
                    <path d="M88.0025891,3.03907752 L3.03907752,88.0025891 C-0.825485782,91.8671524 -0.825485782,98.1328476 3.03907752,101.997411 L88.0025891,186.960922 C91.8671524,190.825486 98.1328476,190.825486 101.997411,186.960922 L186.960922,101.997411 C190.825486,98.1328476 190.825486,91.8671524 186.960922,88.0025891 L101.997411,3.03907752 C98.1328476,-0.825485782 91.8671524,-0.825485782 88.0025891,3.03907752 Z" id="Path-4" fill="url(#linearGradient-1)"></path>
                    <polygon id="Rectangle-Copy-2" fill="#B3D7F5" transform="translate(75.208333, 134.583333) rotate(-180.000000) translate(-75.208333, -134.583333) " points="85.1041667 104.895833 85.1041667 184.0625 71.9097222 184.0625 65.3125 177.465278 65.3125 85.1041667"></polygon>
                    <polygon id="Rectangle-Copy-3" fill="#80BCEF" transform="translate(55.416667, 124.687500) rotate(-180.000000) translate(-55.416667, -124.687500) " points="65.3125 104.895833 65.3125 164.270833 45.5208333 164.270833 45.5208333 85.1041667"></polygon>
                    <path d="M85.1041667,91.7013889 L138.541667,38.2638889 L155.036526,54.7569444 L85.1041667,124.6875 L45.5208333,85.1041667 L78.5069444,85.1041667 L85.1041667,91.7013889 Z" id="Combined-Shape" fill="#FFFFFF"></path>
                </g>
            </g>
        </g>
    </g>
</svg>